# xmcd
#
# Track frame offsets:
#	183
#	8948
#	17760
#	35230
#	48108
#	60933
#	72558
#	88283
#	101263
#	110633
#	130833
#	138858
#	146493
#	160253
#
# Disc length: 2343 seconds
#
# Revision: 0
# Processed by: cddbd v1.5.2PL0 Copyright (c) Steve Scherf et al.
# Submitted via: audiograbber 1.83.01
#
DISCID=be09250e
DTITLE=Placido Domingo - Opera Highlights
DYEAR=1900
DGENRE=Opera
TTITLE0=De Quella Pira
TTITLE1=De' Miei Bollento Spiriti
TTITLE2=Recitar... Vesti La Giubba
TTITLE3=Dammi I Colori... Recondita Armonia
TTITLE4=Brindisi: Intanto Amici... A Voi Tutti Salute... Viva Il Vino Spumeggia
TTITLE4=nte
TTITLE5=Hai Ben Ragione
TTITLE6=Ingemisco
TTITLE7=E Lucento Le Stelle
TTITLE8=Siciliano: O Lola !
TTITLE9=Che Gelida Manina
TTITLE10=L' Amina Ho Stanca
TTITLE11=Lungi Da Lei
TTITLE12=Brindisi: Libiamo, Libiamo
TTITLE13=Un Di Felice Eterea
EXTD=
EXTT0=
EXTT1=
EXTT2=
EXTT3=
EXTT4=
EXTT5=
EXTT6=
EXTT7=
EXTT8=
EXTT9=
EXTT10=
EXTT11=
EXTT12=
EXTT13=
PLAYORDER=
